<?xml version="1.0" encoding="UTF-8"?>
<svg width="217px" height="31px" viewBox="0 0 217 31" version="1.1" xmlns="http://www.w3.org/2000/svg" xmlns:xlink="http://www.w3.org/1999/xlink">
    <!-- Generator: Sketch 58 (84663) - https://sketch.com -->
    <title>spincommerce_logo_darkbg</title>
    <desc>Created with Sketch.</desc>
    <g id="Page-1" stroke="none" stroke-width="1" fill="none" fill-rule="evenodd">
        <g id="spincommerce_logo_darkbg" fill="#FFFFFF" fill-rule="nonzero">
            <path d="M37.1759001,19.3539252 C37.4998162,19.9817992 37.9771591,20.4611832 38.6079428,20.7920875 C39.2387265,21.122997 39.9035968,21.2884492 40.6025736,21.2884492 C40.9264897,21.2884492 41.2504006,21.2375368 41.5743167,21.1357225 C41.8982328,21.033903 42.1880477,20.8896652 42.4437713,20.7029987 C42.6994944,20.5163322 42.908332,20.2914892 43.0702898,20.0284645 C43.2322476,19.7654347 43.3132254,19.4642283 43.3132254,19.1248403 C43.3132254,18.5818133 43.1384839,18.1745457 42.7889955,17.9030373 C42.4395071,17.6315238 42.0090466,17.4194063 41.4975999,17.2666797 C40.9861538,17.113953 40.4235683,16.9824407 39.8098357,16.8721375 C39.1961,16.7618343 38.6335151,16.5921455 38.122071,16.3630555 C37.6106274,16.1339655 37.1801638,15.8157918 36.8306754,15.408519 C36.4811871,15.0012513 36.306446,14.4242948 36.306446,13.677634 C36.306446,13.1006672 36.4257815,12.600074 36.6644565,12.1758338 C36.9031316,11.7515937 37.2142567,11.3994802 37.5978415,11.119483 C37.9814259,10.8394858 38.4118869,10.6316102 38.8892371,10.495856 C39.3665867,10.3600967 39.8524534,10.2922222 40.3468515,10.2922222 C41.3185999,10.2922222 42.1582113,10.4703998 42.8657123,10.8267603 C43.5732132,11.1831208 44.1230097,11.74311 44.5151184,12.5067382 L43.1342202,13.3212735 C42.8444006,12.7782465 42.4821315,12.3667422 42.0474021,12.086745 C41.6126728,11.8067478 41.0458283,11.6667467 40.3468515,11.6667467 C40.0740805,11.6667467 39.7885271,11.7091702 39.4901833,11.7940223 C39.1918394,11.8788693 38.9233341,11.997651 38.6846596,12.1503777 C38.4459845,12.3031043 38.2456712,12.4982545 38.0837128,12.7358282 C37.9217551,12.9734018 37.8407772,13.2449102 37.8407772,13.5503635 C37.8407772,14.076418 38.0155188,14.4667132 38.3650071,14.7212542 C38.7144955,14.9758003 39.1449586,15.1751872 39.6564027,15.3194302 C40.1678463,15.4636732 40.7304312,15.5867018 41.3441669,15.6885162 C41.9578995,15.7903357 42.520485,15.9557878 43.0319317,16.1848727 C43.5433778,16.4139627 43.9738388,16.744867 44.3233272,17.1775908 C44.6728156,17.6103147 44.8475566,18.2254528 44.8475566,19.0230208 C44.8475566,19.6339275 44.7324833,20.1642187 44.5023325,20.6139098 C44.2721817,21.0636062 43.9567945,21.4411707 43.5561616,21.746624 C43.1555282,22.0520773 42.6994954,22.2811622 42.1880493,22.4338888 C41.6766031,22.5866155 41.1395925,22.6629737 40.5770013,22.6629737 C39.5541085,22.6629737 38.6207333,22.4678287 37.7768468,22.0775283 C36.9329603,21.687228 36.2808758,21.0848153 35.8205742,20.27028 L37.1759001,19.3539252 Z M47.711642,10.5976703 L49.2459733,10.5976703 L49.2459733,12.6594648 L49.2971178,12.6594648 C49.5357928,12.252192 49.834132,11.9000785 50.1921446,11.603114 C50.5501567,11.3061443 50.937998,11.0600922 51.3556789,10.864942 C51.7733603,10.6697918 52.2123451,10.525554 52.6726467,10.4322182 C53.1329484,10.3388875 53.5847195,10.2922222 54.0279727,10.2922222 C54.931528,10.2922222 55.7626156,10.4449437 56.5212611,10.750397 C57.2799066,11.0558452 57.9362527,11.484322 58.4903196,12.0358378 C59.0443866,12.5873485 59.4748492,13.2406632 59.7817152,13.9958128 C60.0885833,14.7509573 60.2420148,15.578213 60.2420148,16.4776005 C60.2420148,17.3769828 60.0885833,18.2042385 59.7817152,18.959383 C59.4748492,19.7145327 59.0443866,20.3678473 58.4903196,20.9193632 C57.9362527,21.4708738 57.2799066,21.8993455 56.5212611,22.2047988 C55.7626156,22.5102522 54.931528,22.6629737 54.0279727,22.6629737 C53.5847195,22.6629737 53.1329484,22.6163083 52.6726467,22.5229777 C52.2123451,22.429647 51.7733603,22.285404 51.3556789,22.0902538 C50.937998,21.8951037 50.5501567,21.6490515 50.1921446,21.3520818 C49.834132,21.0551173 49.5357928,20.7030038 49.2971178,20.295731 L49.2459733,20.295731 L49.2459733,28.1610872 L47.711642,28.1610872 L47.711642,10.5976703 Z M49.0925402,16.4776005 C49.0925402,17.1394092 49.2204,17.7630362 49.476123,18.3484815 C49.7318461,18.933932 50.0813293,19.443014 50.5245829,19.8757378 C50.9678366,20.3084617 51.4877992,20.6520915 52.0844864,20.9066325 C52.6811736,21.1611787 53.3289959,21.2884492 54.0279727,21.2884492 C54.7439979,21.2884492 55.3918197,21.1611787 55.9714589,20.9066325 C56.5510981,20.6520915 57.045489,20.3084617 57.4546461,19.8757378 C57.8638033,19.443014 58.1749283,18.933932 58.3880311,18.3484815 C58.6011334,17.7630362 58.7076836,17.1394092 58.7076836,16.4776005 C58.7076836,15.8157867 58.6011334,15.1921648 58.3880311,14.6067143 C58.1749283,14.0212638 57.8638033,13.5121818 57.4546461,13.079458 C57.045489,12.6467342 56.5510981,12.3031043 55.9714589,12.0485633 C55.3918197,11.7940172 54.7439979,11.6667467 54.0279727,11.6667467 C53.3289959,11.6667467 52.6811736,11.7940172 52.0844864,12.0485633 C51.4877992,12.3031043 50.9678366,12.6467342 50.5245829,13.079458 C50.0813293,13.5121818 49.7318461,14.0212638 49.476123,14.6067143 C49.2204,15.1921648 49.0925402,15.8157867 49.0925402,16.4776005 Z M63.9244098,10.5976703 L65.4587415,10.5976703 L65.4587415,22.3575255 L63.9244098,22.3575255 L63.9244098,10.5976703 Z M63.540827,5.93954833 C63.540827,5.61712767 63.6516387,5.34561933 63.8732658,5.125013 C64.0948923,4.90440667 64.3676598,4.79410867 64.6915754,4.79410867 C65.0154915,4.79410867 65.2882589,4.90440667 65.5098855,5.125013 C65.7315126,5.34561933 65.8423243,5.61712767 65.8423243,5.93954833 C65.8423243,6.261969 65.7315126,6.53347733 65.5098855,6.75408367 C65.2882589,6.97469 65.0154915,7.084988 64.6915754,7.084988 C64.3676598,7.084988 64.0948923,6.97469 63.8732658,6.75408367 C63.6516387,6.53347733 63.540827,6.261969 63.540827,5.93954833 Z M69.8060136,13.9067188 C69.8060136,13.6861177 69.7974893,13.4188512 69.7804413,13.1049142 C69.7633928,12.7909772 69.7506069,12.4728035 69.7420827,12.1503777 C69.7335589,11.827957 69.7207731,11.5267507 69.7037246,11.2467535 C69.6866766,10.9667563 69.6781523,10.750397 69.6781523,10.5976703 L71.212484,10.5976703 C71.229532,11.0388778 71.2423179,11.4631128 71.2508422,11.8703805 C71.2593664,12.2776533 71.280676,12.540678 71.3147725,12.6594648 L71.3914893,12.6594648 C71.6983569,12.0146183 72.2097958,11.4588762 72.9258205,10.9922125 C73.6418452,10.5255488 74.477195,10.2922222 75.4318948,10.2922222 C76.3524987,10.2922222 77.1026085,10.43646 77.6822477,10.7249408 C78.2618869,11.0134268 78.7179196,11.3909913 79.05036,11.857655 C79.3827998,12.3243187 79.6129475,12.8630935 79.7408088,13.4740002 C79.8686706,14.0849017 79.9326005,14.7127705 79.9326005,15.3576118 L79.9326005,22.3575255 L78.3982688,22.3575255 L78.3982688,15.4339752 C78.3982688,14.9588278 78.355649,14.4964112 78.270408,14.04672 C78.185167,13.5970237 78.0359971,13.194003 77.8228948,12.8376425 C77.609792,12.481282 77.3114528,12.1970482 76.9278679,11.9849255 C76.5442836,11.772808 76.0456306,11.6667467 75.4318948,11.6667467 C74.8693042,11.6667467 74.3365557,11.7643243 73.8336333,11.9594745 C73.3307108,12.1546247 72.8959882,12.451584 72.5294513,12.8503732 C72.162915,13.2491572 71.8730995,13.7497503 71.6599972,14.3521682 C71.4468944,14.9545912 71.3403448,15.66306 71.3403448,16.4776005 L71.3403448,22.3575255 L69.8060136,22.3575255 L69.8060136,13.9067188 Z M99.3674642,19.532108 C98.4980054,20.7030038 97.4921756,21.542985 96.3499457,22.0520722 C95.2077154,22.5611593 93.9717389,22.8157003 92.6419785,22.8157003 C91.261073,22.8157003 89.9952622,22.5823737 88.8445081,22.11571 C87.693754,21.6490463 86.7092343,20.9957265 85.8909206,20.155735 C85.0726104,19.3157383 84.4333077,18.314552 83.973006,17.1521347 C83.5127044,15.9897173 83.2825572,14.7212645 83.2825572,13.3467297 C83.2825572,11.9721948 83.5127044,10.7079787 83.973006,9.55405017 C84.4333077,8.4001165 85.0726104,7.403172 85.8909206,6.56317533 C86.7092343,5.72318383 87.693754,5.06562217 88.8445081,4.59047483 C89.9952622,4.1153275 91.261073,3.87775383 92.6419785,3.87775383 C93.8694494,3.87775383 95.0159242,4.09411317 96.0814378,4.526837 C97.1469509,4.95956083 98.0803266,5.68500217 98.8815923,6.7031765 L97.5006941,7.84861617 C96.9381029,7.00013583 96.217827,6.38075583 95.339844,5.9904555 C94.4618614,5.60015517 93.5625818,5.40501017 92.6419785,5.40501017 C91.4656516,5.40501017 90.4044162,5.60863883 89.4582407,6.01591167 C88.5120651,6.42317933 87.7065492,6.9831685 87.041669,7.6958895 C86.3767887,8.4086105 85.8653499,9.24859167 85.5073377,10.2158588 C85.1493251,11.183126 84.9703214,12.2267358 84.9703214,13.3467297 C84.9703214,14.4667183 85.1493251,15.5103333 85.5073377,16.4776005 C85.8653499,17.4448625 86.3767887,18.2848437 87.041669,18.9975647 C87.7065492,19.7102908 88.5120651,20.2702748 89.4582407,20.6775477 C90.4044162,21.0848153 91.4656516,21.2884492 92.6419785,21.2884492 C93.1022801,21.2884492 93.5796225,21.233295 94.0740207,21.122997 C94.5684188,21.0126938 95.0500238,20.8429998 95.5188497,20.6139098 C95.9876751,20.3848198 96.4351842,20.0963442 96.8613893,19.7484673 C97.2875949,19.4005905 97.6626499,18.9805973 97.986566,18.4884827 L99.3674642,19.532108 Z M101.362095,16.4776005 C101.362095,15.578213 101.515526,14.7509573 101.822394,13.9958128 C102.129261,13.2406632 102.555461,12.5873485 103.101004,12.0358378 C103.646546,11.484322 104.302892,11.0558452 105.070062,10.750397 C105.837231,10.4449437 106.672581,10.2922222 107.576137,10.2922222 C108.479692,10.2922222 109.310779,10.4449437 110.069425,10.750397 C110.82807,11.0558452 111.484417,11.484322 112.038484,12.0358378 C112.59255,12.5873485 113.023011,13.2406632 113.329879,13.9958128 C113.636746,14.7509573 113.790179,15.578213 113.790179,16.4776005 C113.790179,17.3769828 113.636746,18.2042385 113.329879,18.959383 C113.023011,19.7145327 112.59255,20.3678473 112.038484,20.9193632 C111.484417,21.4708738 110.82807,21.8993455 110.069425,22.2047988 C109.310779,22.5102522 108.479692,22.6629737 107.576137,22.6629737 C106.672581,22.6629737 105.837231,22.5102522 105.070062,22.2047988 C104.302892,21.8993455 103.646546,21.4708738 103.101004,20.9193632 C102.555461,20.3678473 102.129261,19.7145327 101.822394,18.959383 C101.515526,18.2042385 101.362095,17.3769828 101.362095,16.4776005 Z M102.896426,16.4776005 C102.896426,17.1394092 103.002976,17.7630362 103.216079,18.3484815 C103.429181,18.933932 103.740306,19.443014 104.149464,19.8757378 C104.55862,20.3084617 105.053011,20.6520915 105.63265,20.9066325 C106.212289,21.1611787 106.860112,21.2884492 107.576137,21.2884492 C108.292162,21.2884492 108.939984,21.1611787 109.519623,20.9066325 C110.099262,20.6520915 110.593653,20.3084617 111.00281,19.8757378 C111.411967,19.443014 111.723092,18.933932 111.936195,18.3484815 C112.149297,17.7630362 112.255847,17.1394092 112.255847,16.4776005 C112.255847,15.8157867 112.149297,15.1921648 111.936195,14.6067143 C111.723092,14.0212638 111.411967,13.5121818 111.00281,13.079458 C110.593653,12.6467342 110.099262,12.3031043 109.519623,12.0485633 C108.939984,11.7940172 108.292162,11.6667467 107.576137,11.6667467 C106.860112,11.6667467 106.212289,11.7940172 105.63265,12.0485633 C105.053011,12.3031043 104.55862,12.6467342 104.149464,13.079458 C103.740306,13.5121818 103.429181,14.0212638 103.216079,14.6067143 C103.002976,15.1921648 102.896426,15.8157867 102.896426,16.4776005 Z M117.216852,13.9067188 C117.216852,13.6861177 117.208328,13.4188512 117.19128,13.1049142 C117.174231,12.7909772 117.161445,12.4728035 117.152921,12.1503777 C117.144397,11.827957 117.131612,11.5267507 117.114563,11.2467535 C117.097515,10.9667563 117.088991,10.750397 117.088991,10.5976703 L118.623323,10.5976703 C118.640371,11.0388778 118.653156,11.4631128 118.661681,11.8703805 C118.670205,12.2776533 118.691515,12.540678 118.725611,12.6594648 L118.802328,12.6594648 C119.109195,12.0146183 119.620634,11.4588762 120.336659,10.9922125 C121.052684,10.5255488 121.888034,10.2922222 122.842733,10.2922222 C123.626951,10.2922222 124.342965,10.491609 124.990797,10.890393 C125.638629,11.2891822 126.107448,11.938255 126.397268,12.8376425 C126.772328,11.9552275 127.330649,11.3103913 128.072246,10.9031237 C128.813843,10.4958508 129.593787,10.2922222 130.412101,10.2922222 C131.332705,10.2922222 132.082815,10.43646 132.662454,10.7249408 C133.242093,11.0134268 133.698126,11.3909913 134.030566,11.857655 C134.363006,12.3243187 134.593154,12.8630935 134.721015,13.4740002 C134.848877,14.0849017 134.912807,14.7127705 134.912807,15.3576118 L134.912807,22.3575255 L133.378475,22.3575255 L133.378475,15.4339752 C133.378475,14.9588278 133.335856,14.4964112 133.250615,14.04672 C133.165374,13.5970237 133.016204,13.194003 132.803101,12.8376425 C132.589999,12.481282 132.291659,12.1970482 131.908074,11.9849255 C131.52449,11.772808 131.025837,11.6667467 130.412101,11.6667467 C129.696077,11.6667467 129.10792,11.798259 128.64762,12.0612888 C128.187319,12.3243187 127.82505,12.6594597 127.560802,13.0667325 C127.296555,13.4740002 127.109028,13.9152025 126.998214,14.3903498 C126.887401,14.8654972 126.831995,15.3151883 126.831995,15.7394233 L126.831995,22.3575255 L125.297664,22.3575255 L125.297664,15.2812485 C125.297664,14.1951945 125.09735,13.3212787 124.696717,12.6594648 C124.296084,11.997651 123.678096,11.6667467 122.842733,11.6667467 C122.280143,11.6667467 121.747394,11.7643243 121.244472,11.9594745 C120.741549,12.1546247 120.306827,12.451584 119.94029,12.8503732 C119.573753,13.2491572 119.283938,13.7497503 119.070836,14.3521682 C118.857733,14.9545912 118.751183,15.66306 118.751183,16.4776005 L118.751183,22.3575255 L117.216852,22.3575255 L117.216852,13.9067188 Z M139.004357,13.9067188 C139.004357,13.6861177 138.995833,13.4188512 138.978785,13.1049142 C138.961737,12.7909772 138.94895,12.4728035 138.940427,12.1503777 C138.931902,11.827957 138.919117,11.5267507 138.902068,11.2467535 C138.88502,10.9667563 138.876496,10.750397 138.876496,10.5976703 L140.410828,10.5976703 C140.427876,11.0388778 140.440661,11.4631128 140.449186,11.8703805 C140.45771,12.2776533 140.47902,12.540678 140.513116,12.6594648 L140.589833,12.6594648 C140.8967,12.0146183 141.408139,11.4588762 142.124164,10.9922125 C142.840189,10.5255488 143.675539,10.2922222 144.630238,10.2922222 C145.414456,10.2922222 146.13047,10.491609 146.778303,10.890393 C147.426134,11.2891822 147.894954,11.938255 148.184773,12.8376425 C148.559834,11.9552275 149.118154,11.3103913 149.859751,10.9031237 C150.601348,10.4958508 151.381293,10.2922222 152.199606,10.2922222 C153.12021,10.2922222 153.87032,10.43646 154.449959,10.7249408 C155.029598,11.0134268 155.485631,11.3909913 155.818072,11.857655 C156.150511,12.3243187 156.380659,12.8630935 156.50852,13.4740002 C156.636382,14.0849017 156.700312,14.7127705 156.700312,15.3576118 L156.700312,22.3575255 L155.16598,22.3575255 L155.16598,15.4339752 C155.16598,14.9588278 155.123361,14.4964112 155.03812,14.04672 C154.952879,13.5970237 154.803709,13.194003 154.590606,12.8376425 C154.377504,12.481282 154.079164,12.1970482 153.695579,11.9849255 C153.311995,11.772808 152.813342,11.6667467 152.199606,11.6667467 C151.483582,11.6667467 150.895425,11.798259 150.435125,12.0612888 C149.974824,12.3243187 149.612555,12.6594597 149.348307,13.0667325 C149.08406,13.4740002 148.896533,13.9152025 148.785719,14.3903498 C148.674906,14.8654972 148.6195,15.3151883 148.6195,15.7394233 L148.6195,22.3575255 L147.085169,22.3575255 L147.085169,15.2812485 C147.085169,14.1951945 146.884855,13.3212787 146.484222,12.6594648 C146.083589,11.997651 145.465601,11.6667467 144.630238,11.6667467 C144.067648,11.6667467 143.534899,11.7643243 143.031977,11.9594745 C142.529054,12.1546247 142.094332,12.451584 141.727795,12.8503732 C141.361258,13.2491572 141.071444,13.7497503 140.858341,14.3521682 C140.645238,14.9545912 140.538688,15.66306 140.538688,16.4776005 L140.538688,22.3575255 L139.004357,22.3575255 L139.004357,13.9067188 Z M171.225315,20.1430095 C170.628628,21.0423918 169.891304,21.687228 169.013321,22.0775283 C168.135338,22.4678287 167.167867,22.6629737 166.110877,22.6629737 C165.207322,22.6629737 164.38902,22.5102522 163.655947,22.2047988 C162.922874,21.8993455 162.2921,21.4708738 161.763605,20.9193632 C161.235111,20.3678473 160.830222,19.7145327 160.548926,18.959383 C160.267631,18.2042385 160.126985,17.3684992 160.126985,16.4521443 C160.126985,15.5697242 160.271893,14.7551992 160.561712,14.0085383 C160.851532,13.2618775 161.260683,12.6127995 161.789177,12.0612888 C162.317672,11.5097782 162.939926,11.0770595 163.655947,10.7631225 C164.371972,10.4491855 165.164702,10.2922222 166.034161,10.2922222 C166.937716,10.2922222 167.734708,10.4491855 168.425161,10.7631225 C169.115613,11.0770595 169.695243,11.4928108 170.164069,12.0103817 C170.632895,12.5279525 170.98664,13.1176345 171.225315,13.7794483 C171.46399,14.4412622 171.583326,15.1115493 171.583326,15.7903357 L171.583326,16.859412 L161.661317,16.859412 C161.661317,17.1818327 161.725247,17.593337 161.853108,18.0939405 C161.98097,18.594544 162.215379,19.0824117 162.556343,19.557559 C162.897307,20.0327063 163.35334,20.4399688 163.924455,20.779362 C164.49557,21.1187552 165.232894,21.2884492 166.13645,21.2884492 C166.920667,21.2884492 167.679301,21.1017827 168.412375,20.7284548 C169.145447,20.3551218 169.70803,19.846045 170.100139,19.2011985 L171.225315,20.1430095 Z M170.048994,15.4848823 C170.048994,14.9588278 169.942445,14.4667132 169.729342,14.0085383 C169.51624,13.5503583 169.226424,13.1473377 168.859888,12.7994608 C168.493351,12.451584 168.058628,12.1758338 167.555706,11.9722 C167.052784,11.7685662 166.520032,11.6667467 165.957444,11.6667467 C165.122082,11.6667467 164.427378,11.8364407 163.873311,12.1758338 C163.319244,12.515227 162.880259,12.905517 162.556343,13.3467297 C162.232427,13.7879372 162.00228,14.216414 161.865894,14.6321653 C161.729508,15.0479218 161.661317,15.3321557 161.661317,15.4848823 L170.048994,15.4848823 Z M175.009999,13.9067188 C175.009999,13.6861177 175.001475,13.4188512 174.984427,13.1049142 C174.967379,12.7909772 174.954593,12.4728035 174.946069,12.1503777 C174.937544,11.827957 174.924759,11.5267507 174.907711,11.2467535 C174.890662,10.9667563 174.882138,10.750397 174.882138,10.5976703 L176.416469,10.5976703 C176.433518,11.0388778 176.446304,11.4631128 176.454828,11.8703805 C176.463352,12.2776533 176.484662,12.540678 176.518758,12.6594648 C176.910867,11.9637112 177.413782,11.3952383 178.027517,10.9540308 C178.641253,10.5128233 179.391363,10.2922222 180.27787,10.2922222 C180.431304,10.2922222 180.580474,10.3049477 180.725383,10.3304038 C180.870293,10.3558548 181.019464,10.3855528 181.172897,10.4194927 L180.993891,11.9212928 C180.789313,11.8534132 180.593262,11.8194733 180.405731,11.8194733 C179.740854,11.8194733 179.165483,11.9255347 178.679608,12.1376522 C178.193734,12.3497697 177.793108,12.6424923 177.477715,13.0158253 C177.162323,13.3891532 176.927914,13.8261137 176.77448,14.3267172 C176.621046,14.8273207 176.544331,15.3660955 176.544331,15.9430572 L176.544331,22.3575255 L175.009999,22.3575255 L175.009999,13.9067188 Z M193.421976,20.6266353 C192.842336,21.322389 192.18599,21.8357128 191.452917,22.1666172 C190.719844,22.4975267 189.927114,22.6629737 189.074703,22.6629737 C188.171148,22.6629737 187.335798,22.5102522 186.568629,22.2047988 C185.801459,21.8993455 185.145113,21.4708738 184.59957,20.9193632 C184.054027,20.3678473 183.627827,19.7145327 183.32096,18.959383 C183.014093,18.2042385 182.860661,17.3769828 182.860661,16.4776005 C182.860661,15.578213 183.014093,14.7509573 183.32096,13.9958128 C183.627827,13.2406632 184.054027,12.5873485 184.59957,12.0358378 C185.145113,11.484322 185.801459,11.0558452 186.568629,10.750397 C187.335798,10.4449437 188.171148,10.2922222 189.074703,10.2922222 C189.944162,10.2922222 190.749678,10.4703998 191.491275,10.8267603 C192.232872,11.1831208 192.89348,11.683714 193.47312,12.3285605 L192.245654,13.2449102 C191.802401,12.7527955 191.316535,12.3667422 190.78804,12.086745 C190.259545,11.8067478 189.688439,11.6667467 189.074703,11.6667467 C188.358678,11.6667467 187.710856,11.7940172 187.131217,12.0485633 C186.551578,12.3031043 186.057187,12.6467342 185.64803,13.079458 C185.238873,13.5121818 184.927748,14.0212638 184.714645,14.6067143 C184.501542,15.1921648 184.394993,15.8157867 184.394993,16.4776005 C184.394993,17.1394092 184.501542,17.7630362 184.714645,18.3484815 C184.927748,18.933932 185.238873,19.443014 185.64803,19.8757378 C186.057187,20.3084617 186.551578,20.6520915 187.131217,20.9066325 C187.710856,21.1611787 188.358678,21.2884492 189.074703,21.2884492 C189.722535,21.2884492 190.314952,21.1399643 190.85197,20.8429998 C191.388989,20.5460302 191.853546,20.1514932 192.245654,19.6593785 L193.421976,20.6266353 Z M206.259214,20.1430095 C205.662527,21.0423918 204.925203,21.687228 204.04722,22.0775283 C203.169237,22.4678287 202.201765,22.6629737 201.144777,22.6629737 C200.241221,22.6629737 199.42292,22.5102522 198.689846,22.2047988 C197.956773,21.8993455 197.325999,21.4708738 196.797505,20.9193632 C196.26901,20.3678473 195.864121,19.7145327 195.582825,18.959383 C195.30153,18.2042385 195.160884,17.3684992 195.160884,16.4521443 C195.160884,15.5697242 195.305792,14.7551992 195.595612,14.0085383 C195.885431,13.2618775 196.294582,12.6127995 196.823076,12.0612888 C197.351571,11.5097782 197.973825,11.0770595 198.689846,10.7631225 C199.405871,10.4491855 200.198601,10.2922222 201.06806,10.2922222 C201.971615,10.2922222 202.768607,10.4491855 203.459059,10.7631225 C204.149512,11.0770595 204.729143,11.4928108 205.197969,12.0103817 C205.666794,12.5279525 206.020539,13.1176345 206.259214,13.7794483 C206.497889,14.4412622 206.617225,15.1115493 206.617225,15.7903357 L206.617225,16.859412 L196.695216,16.859412 C196.695216,17.1818327 196.759145,17.593337 196.887007,18.0939405 C197.014868,18.594544 197.249278,19.0824117 197.590242,19.557559 C197.931207,20.0327063 198.387239,20.4399688 198.958354,20.779362 C199.529469,21.1187552 200.266794,21.2884492 201.170348,21.2884492 C201.954566,21.2884492 202.7132,21.1017827 203.446273,20.7284548 C204.179347,20.3551218 204.741929,19.846045 205.134038,19.2011985 L206.259214,20.1430095 Z M205.082894,15.4848823 C205.082894,14.9588278 204.976344,14.4667132 204.763241,14.0085383 C204.550138,13.5503583 204.260324,13.1473377 203.893787,12.7994608 C203.52725,12.451584 203.092527,12.1758338 202.589605,11.9722 C202.086683,11.7685662 201.553932,11.6667467 200.991343,11.6667467 C200.155981,11.6667467 199.461277,11.8364407 198.90721,12.1758338 C198.353143,12.515227 197.914158,12.905517 197.590242,13.3467297 C197.266326,13.7879372 197.036179,14.216414 196.899793,14.6321653 C196.763408,15.0479218 196.695216,15.3321557 196.695216,15.4848823 L205.082894,15.4848823 Z M15.9028289,0 C24.5042676,0 31.1483254,7.129194 31.1483254,15.6220573 C31.1483254,24.1152927 24.1756014,31 15.5741627,31 C6.97272395,31 0,24.1156595 0,15.6220573 C0,7.129194 7.30101588,0 15.9028289,0 Z M19.9820686,20.3854192 C18.6814999,18.176385 15.3545109,12.687711 13.7559981,10.0247903 C13.1947982,9.08216817 13.5332201,8.57288467 14.0541872,8.269343 C14.5748102,7.96579617 15.2823735,8.10284717 15.8432297,9.0454745 L19.1024903,14.423246 C19.5503523,15.0771135 20.466233,15.5932532 21.2624288,15.0771135 C22.0586247,14.560979 21.9706224,13.5922135 21.5775757,12.9640812 C20.7654869,11.6662713 19.5447119,9.715338 17.9152506,7.111276 C16.9211128,5.62157617 14.8613068,4.54701283 12.5500024,5.8862025 C10.238698,7.22539217 10.3111371,9.71793167 11.1919219,11.1867892 C12.0446483,12.62041 15.8266775,18.9216922 17.4187857,21.5470305 C17.9364086,22.400569 17.6527418,23.038735 17.1436204,23.338505 C16.6344989,23.6382698 15.8372721,23.5304208 15.3036815,22.6964847 L12.032039,17.2874135 C11.6998353,16.7318935 10.9271196,16.0222363 9.98885211,16.5676658 C9.05058409,17.1130902 9.23384941,18.0672443 9.46289862,18.5696045 L13.2253007,24.6516082 C14.34865,26.2197225 16.5948429,27.0480063 18.6371104,25.7209015 C21.0118141,24.3146898 20.8468593,21.8542767 19.9820686,20.3854192 Z M212.258672,14.1048398 L211.693481,14.1048398 L211.693481,9.6360865 L213.420455,9.6360865 C213.929827,9.6360865 214.292662,9.74199283 214.508971,9.95379517 C214.72528,10.1656027 214.833433,10.4728902 214.833433,10.8756732 C214.833433,11.0840087 214.803778,11.2610858 214.744468,11.4069202 C214.685157,11.5527545 214.603171,11.6760208 214.498505,11.776714 C214.393839,11.8774072 214.273475,11.9572683 214.13741,12.0162975 C214.001345,12.0753267 213.85656,12.1187267 213.70305,12.1465078 L215.042763,14.1048398 L214.404306,14.1048398 L213.064593,12.1465078 L212.258672,12.1465078 L212.258672,14.1048398 Z M212.258672,11.6465037 L212.980861,11.6465037 C213.134371,11.6465037 213.287878,11.6412957 213.441387,11.6308797 C213.594897,11.6204637 213.732705,11.5892157 213.854814,11.5371305 C213.976924,11.4850453 214.076355,11.4086562 214.15311,11.307963 C214.229865,11.2072698 214.268242,11.0631715 214.268242,10.8756732 C214.268242,10.7298388 214.238587,10.6100497 214.179276,10.5162953 C214.119966,10.4225462 214.043212,10.347893 213.949013,10.292341 C213.854814,10.2367838 213.746661,10.1968507 213.624552,10.1725467 C213.502442,10.1482427 213.382078,10.1360907 213.263457,10.1360907 L212.258672,10.1360907 L212.258672,11.6465037 Z M209.212919,11.8860872 C209.212919,11.351363 209.315838,10.8496332 209.521681,10.3808822 C209.727523,9.912126 210.006627,9.50240933 210.359001,9.1517115 C210.711375,8.80101883 211.123054,8.52324333 211.594049,8.31837983 C212.065044,8.11351633 212.569176,8.01108717 213.106459,8.01108717 C213.643743,8.01108717 214.147875,8.11351633 214.618869,8.31837983 C215.089865,8.52324333 215.501543,8.80101883 215.853918,9.1517115 C216.206292,9.50240933 216.485396,9.912126 216.691238,10.3808822 C216.89708,10.8496332 217,11.351363 217,11.8860872 C217,12.4208113 216.89708,12.9225463 216.691238,13.3912973 C216.485396,13.8600483 216.206292,14.269765 215.853918,14.6204628 C215.501543,14.9711607 215.089865,15.2489362 214.618869,15.4537997 C214.147875,15.658658 213.643743,15.7610872 213.106459,15.7610872 C212.569176,15.7610872 212.065044,15.658658 211.594049,15.4537997 C211.123054,15.2489362 210.711375,14.9711607 210.359001,14.6204628 C210.006627,14.269765 209.727523,13.8600483 209.521681,13.3912973 C209.315838,12.9225463 209.212919,12.4208113 209.212919,11.8860872 Z M209.77811,11.8860872 C209.77811,12.3444222 209.86533,12.774976 210.039773,13.1777538 C210.214215,13.5805368 210.451454,13.9312243 210.751495,14.229837 C211.051537,14.5284497 211.403905,14.7645612 211.808612,14.9381715 C212.21332,15.1117818 212.645931,15.198587 213.106459,15.198587 C213.566988,15.198587 213.999599,15.1117818 214.404306,14.9381715 C214.809013,14.7645612 215.161382,14.5284497 215.461423,14.229837 C215.761465,13.9312243 215.998703,13.5805368 216.173146,13.1777538 C216.347588,12.774976 216.434808,12.3444222 216.434808,11.8860872 C216.434808,11.4277522 216.347588,10.9972035 216.173146,10.5944205 C215.998703,10.1916427 215.761465,9.84095 215.461423,9.54233733 C215.161382,9.24372467 214.809013,9.00761833 214.404306,8.834008 C213.999599,8.6603925 213.566988,8.57358733 213.106459,8.57358733 C212.645931,8.57358733 212.21332,8.6603925 211.808612,8.834008 C211.403905,9.00761833 211.051537,9.24372467 210.751495,9.54233733 C210.451454,9.84095 210.214215,10.1916427 210.039773,10.5944205 C209.86533,10.9972035 209.77811,11.4277522 209.77811,11.8860872 Z" id="Combined-Shape"></path>
        </g>
    </g>
</svg>