<?xml version="1.0" encoding="UTF-8" standalone="no"?>
<svg width="220px" height="42px" viewBox="0 0 220 42" version="1.1" xmlns="http://www.w3.org/2000/svg" xmlns:xlink="http://www.w3.org/1999/xlink" xmlns:sketch="http://www.bohemiancoding.com/sketch/ns">
    <!-- Generator: Sketch 3.4.4 (17249) - http://www.bohemiancoding.com/sketch -->
    <title>logotype_white</title>
    <desc>Created with Sketch.</desc>
    <defs></defs>
    <g id="Welcome" stroke="none" stroke-width="1" fill="none" fill-rule="evenodd" sketch:type="MSPage">
        <g id="Desktop-Inicio-01" sketch:type="MSArtboardGroup" transform="translate(-23.000000, -18.000000)">
            <g id="HEADER" sketch:type="MSLayerGroup" transform="translate(20.000000, 12.000000)">
                <g id="logotype_white" transform="translate(3.000000, 6.000000)" sketch:type="MSShapeGroup">
                    <g id="Capa_1">
                        <g id="Group">
                            <path d="M58.2767117,16.6391837 L56.9472973,18.6471202 C55.7769369,17.8973243 54.6600901,17.495737 53.4104505,17.495737 C52.0542793,17.495737 51.2832883,18.0579592 51.2832883,18.9145125 C51.2832883,19.8513832 51.8412162,20.2794104 54.234955,20.9493878 C57.1073423,21.7261224 58.7286036,22.9039456 58.7286036,25.4202268 C58.7286036,28.365034 56.0162613,29.9185034 52.7995045,29.9185034 C50.3795045,29.9185034 48.4911712,29.0878912 47.188018,27.910068 L48.890045,25.982449 C49.9806306,26.8130612 51.2832883,27.3742857 52.7197297,27.3742857 C54.234955,27.3742857 55.219009,26.7312472 55.219009,25.6611791 C55.219009,24.483356 54.6610811,24.1087075 52.0285135,23.3594104 C49.1293694,22.5567347 47.852973,21.1643991 47.852973,19.0761451 C47.852973,16.72 50.0073874,14.9520181 53.2781532,14.9520181 C55.2987838,14.9520181 56.9477928,15.5945578 58.2767117,16.6391837" id="Shape" fill="#FFFFFF"></path>
                            <path d="M73.9923423,22.395102 C73.9923423,26.7327438 71.997973,29.9190023 68.4348649,29.9190023 C66.9989189,29.9190023 65.7755405,29.4101587 64.898018,28.365034 L64.898018,34.9790023 L61.493964,35.3531519 L61.493964,15.3546032 L64.4723874,15.3546032 L64.6586937,17.0946485 C65.7755405,15.6219955 67.2907658,14.952517 68.7272072,14.952517 C72.4498649,14.952517 73.9923423,17.8703855 73.9923423,22.395102 M70.4292342,22.4220408 C70.4292342,18.8346939 69.4719369,17.5226757 67.7168919,17.5226757 C66.5465315,17.5226757 65.5624775,18.3527891 64.898018,19.4502948 L64.898018,25.8218141 C65.5624775,26.8125624 66.4137387,27.2944671 67.4775676,27.2944671 C69.3386486,27.294966 70.4292342,25.8487528 70.4292342,22.4220408" id="Shape" fill="#FFFFFF"></path>
                            <path d="M81.1720721,10.2676644 C81.1720721,11.4180499 80.2945495,12.3289796 79.0176577,12.3289796 C77.768018,12.3289796 76.8904955,11.4180499 76.8904955,10.2676644 C76.8904955,9.0893424 77.768018,8.17941043 79.0176577,8.17941043 C80.2940541,8.17941043 81.1720721,9.0893424 81.1720721,10.2676644 L81.1720721,10.2676644 Z M80.7459459,29.517415 L77.3418919,29.517415 L77.3418919,15.3546032 L80.7459459,15.3546032 L80.7459459,29.517415 L80.7459459,29.517415 Z" id="Shape" fill="#FFFFFF"></path>
                            <path d="M96.3287838,19.26322 L96.3287838,29.517415 L92.9247297,29.517415 L92.9247297,19.7985034 C92.9247297,18.0310204 92.2607658,17.5226757 91.1964414,17.5226757 C89.9730631,17.5226757 89.0692793,18.3527891 88.2442793,19.6643084 L88.2442793,29.5169161 L84.8407207,29.5169161 L84.8407207,15.3541043 L87.7923874,15.3541043 L88.058964,17.2283447 C89.1495495,15.8095692 90.5582432,14.952517 92.340045,14.952517 C94.8665766,14.952517 96.3287838,16.5583673 96.3287838,19.26322" id="Shape" fill="#FFFFFF"></path>
                            <path d="M109.756712,16.6391837 L108.986712,17.6563719 C108.081441,16.9335147 107.178153,16.5588662 105.901757,16.5588662 C103.375225,16.5588662 101.593919,18.5398639 101.593919,22.5826757 C101.593919,26.5985488 103.348964,28.4453515 105.875495,28.4453515 C107.178649,28.4453515 108.109189,28.0168254 109.093243,27.2675283 L109.837477,28.3111565 C108.747387,29.2485261 107.417973,29.811746 105.848739,29.811746 C102.286126,29.811746 99.9444144,27.1612698 99.9444144,22.6096145 C99.9444144,18.1118367 102.257883,15.2199093 105.822477,15.2199093 C107.390225,15.2199093 108.587342,15.6214966 109.756712,16.6391837" id="Shape" fill="#FFFFFF"></path>
                            <path d="M123.929865,22.4759184 C123.929865,27.0001361 121.696667,29.811746 118.028018,29.811746 C114.330135,29.811746 112.15045,27.0270748 112.15045,22.5292971 C112.15045,18.0310204 114.410901,15.2199093 118.053288,15.2199093 C121.748694,15.2199093 123.929865,17.8973243 123.929865,22.4759184 M113.798964,22.5292971 C113.798964,26.4648526 115.368198,28.499229 118.027523,28.499229 C120.685856,28.499229 122.308108,26.4917914 122.308108,22.4759184 C122.308108,18.5398639 120.739369,16.5324263 118.052793,16.5324263 C115.420225,16.5324263 113.798964,18.513424 113.798964,22.5292971" id="Shape" fill="#FFFFFF"></path>
                            <path d="M145.629099,19.5041723 L145.629099,29.517415 L144.085631,29.517415 L144.085631,19.7181859 C144.085631,17.4423583 143.15509,16.4785488 141.720135,16.4785488 C140.044369,16.4785488 138.875495,17.6563719 137.811667,19.3689796 L137.811667,29.5169161 L136.269189,29.5169161 L136.269189,19.7181859 C136.269189,17.4423583 135.338153,16.4785488 133.902207,16.4785488 C132.226937,16.4785488 131.031306,17.6563719 129.993739,19.3689796 L129.993739,29.5169161 L128.45027,29.5169161 L128.45027,15.5147392 L129.78018,15.5147392 L129.913468,17.8713832 C130.951036,16.2914739 132.387973,15.220907 134.195541,15.220907 C135.977342,15.220907 137.200721,16.2380952 137.626351,18.0045805 C138.716937,16.3448526 140.151892,15.220907 142.013468,15.220907 C144.24518,15.2204082 145.629099,16.8536961 145.629099,19.5041723" id="Shape" fill="#FFFFFF"></path>
                            <path d="M168.310405,19.5041723 L168.310405,29.517415 L166.767928,29.517415 L166.767928,19.7181859 C166.767928,17.4423583 165.837387,16.4785488 164.403423,16.4785488 C162.726667,16.4785488 161.556802,17.6563719 160.492973,19.3689796 L160.492973,29.5169161 L158.951486,29.5169161 L158.951486,19.7181859 C158.951486,17.4423583 158.02045,16.4785488 156.584505,16.4785488 C154.909234,16.4785488 153.713604,17.6563719 152.675045,19.3689796 L152.675045,29.5169161 L151.132568,29.5169161 L151.132568,15.5147392 L152.462477,15.5147392 L152.596757,17.8713832 C153.633333,16.2914739 155.068784,15.220907 156.876847,15.220907 C158.65964,15.220907 159.881532,16.2380952 160.307658,18.0045805 C161.398739,16.3448526 162.834189,15.220907 164.695766,15.220907 C166.927477,15.2204082 168.310405,16.8536961 168.310405,19.5041723" id="Shape" fill="#FFFFFF"></path>
                            <path d="M183.627162,23.118458 L174.347523,23.118458 C174.532342,26.9193197 176.287883,28.499229 178.680135,28.499229 C180.197342,28.499229 181.207658,28.0168254 182.430045,27.1073923 L183.148018,28.0981406 C181.845856,29.1687075 180.434685,29.811746 178.600856,29.811746 C174.930721,29.811746 172.698018,27.1343311 172.698018,22.6360544 C172.698018,18.1652154 174.851441,15.2199093 178.255495,15.2199093 C181.871126,15.2199093 183.679685,17.8708844 183.679685,21.9935147 C183.680676,22.4220408 183.65491,22.850068 183.627162,23.118458 L183.627162,23.118458 Z M182.164459,21.5126077 C182.164459,18.4600454 180.941081,16.5049887 178.309505,16.5049887 C176.156081,16.5049887 174.506081,18.1387755 174.321261,21.9136961 L182.164459,21.9136961 L182.164459,21.5126077 L182.164459,21.5126077 Z" id="Shape" fill="#FFFFFF"></path>
                            <path d="M194.901171,15.3810431 L194.608829,16.8536961 C194.209459,16.7469388 193.864099,16.6930612 193.386441,16.6930612 C191.444595,16.6930612 190.381261,18.1113379 189.662793,21.0032653 L189.662793,29.5159184 L188.121306,29.5159184 L188.121306,15.5152381 L189.450225,15.5152381 L189.583514,18.647619 C190.328243,16.3453515 191.577883,15.220907 193.518243,15.220907 C194.051396,15.2204082 194.529054,15.2737868 194.901171,15.3810431" id="Shape" fill="#FFFFFF"></path>
                            <path d="M206.468018,16.6391837 L205.698018,17.6563719 C204.792748,16.9335147 203.889459,16.5588662 202.612568,16.5588662 C200.086036,16.5588662 198.305225,18.5398639 198.305225,22.5826757 C198.305225,26.5985488 200.059775,28.4453515 202.586306,28.4453515 C203.889459,28.4453515 204.820495,28.0168254 205.804054,27.2675283 L206.548784,28.3111565 C205.458694,29.2485261 204.128784,29.811746 202.560541,29.811746 C198.996937,29.811746 196.656712,27.1612698 196.656712,22.6096145 C196.656712,18.1118367 198.969189,15.2199093 202.533784,15.2199093 C204.102523,15.2199093 205.299144,15.6214966 206.468018,16.6391837" id="Shape" fill="#FFFFFF"></path>
                            <path d="M219.791396,23.118458 L210.511757,23.118458 C210.696577,26.9193197 212.452117,28.499229 214.844369,28.499229 C216.361577,28.499229 217.372387,28.0168254 218.594279,27.1073923 L219.312252,28.0981406 C218.009099,29.1687075 216.599414,29.811746 214.76509,29.811746 C211.09545,29.811746 208.861261,27.1343311 208.861261,22.6360544 C208.861261,18.1652154 211.015676,15.2199093 214.41973,15.2199093 C218.035856,15.2199093 219.843919,17.8708844 219.843919,21.9935147 C219.844414,22.4220408 219.818649,22.850068 219.791396,23.118458 L219.791396,23.118458 Z M218.328198,21.5126077 C218.328198,18.4600454 217.10482,16.5049887 214.473243,16.5049887 C212.31982,16.5049887 210.66982,18.1387755 210.484009,21.9136961 L218.328198,21.9136961 L218.328198,21.5126077 L218.328198,21.5126077 Z" id="Shape" fill="#FFFFFF"></path>
                            <g id="Shape">
                                <path d="M27.9622973,29.8277098 C27.8369369,29.4829932 27.6744144,29.1317914 27.4663063,28.775102 L22.6604955,20.5617687 L22.664955,20.5587755 L17.653018,11.9912472 C16.8448649,10.6103855 16.9608108,9.72589569 17.710991,9.28090703 C18.4611712,8.83591837 19.2851802,9.1631746 20.0933333,10.5445351 L24.0127027,17.3889796 L24.0201351,17.3849887 C24.1113063,17.5401361 24.2287387,17.6828118 24.3709459,17.8080272 C25.0943694,18.4410884 26.1904054,18.3647619 26.8201802,17.6369161 C27.3211261,17.0572336 27.3746396,16.2405896 27.0109459,15.6110204 L27.0129279,15.6100227 L22.8175676,8.29315193 C22.6154054,7.94743764 22.3963964,7.64263039 22.165991,7.3707483 L22.168964,7.3707483 C22.168964,7.3707483 19.9055405,3.54893424 15.7527928,5.9060771 C11.7967568,8.15147392 13.86,12.204263 13.86,12.204263 L13.862973,12.1997732 C13.9908108,12.5599546 14.1577928,12.9261224 14.3758108,13.2982766 L19.1816216,21.5131066 L19.1766667,21.5160998 L24.1886036,30.0826304 C24.9972523,31.4644898 24.8813063,32.3484807 24.1306306,32.7934694 C23.3804505,33.238458 22.5564414,32.9117007 21.7482883,31.5303401 L17.0822072,23.5499773 C16.9860811,23.3738776 16.8582432,23.2122449 16.6991892,23.0725624 C15.9727928,22.4370068 14.8718018,22.5138322 14.2395495,23.2446712 C13.7059009,23.8612698 13.6771622,24.748254 14.1181532,25.3917914 L19.0235586,33.7822222 C19.2306757,34.1344218 19.4551351,34.4462132 19.6914865,34.7220862 C19.9986937,35.1915193 22.1942342,38.2470748 26.0695045,36.1253968 C30.1459459,33.8934694 27.9622973,29.826712 27.9622973,29.826712 L27.9622973,29.8277098 L27.9622973,29.8277098 Z"></path>
                                <path d="M20.9351802,0.232970522 C9.54126126,0.232970522 0.305720721,9.53183673 0.305720721,21.0027664 C0.305720721,32.4746939 9.54175676,41.7730612 20.9351802,41.7730612 C32.3286036,41.7730612 41.5646396,32.474195 41.5646396,21.0027664 C41.5646396,9.53183673 32.3286036,0.232970522 20.9351802,0.232970522 L20.9351802,0.232970522 Z M26.0704955,36.1253968 C22.1952252,38.2470748 19.9996847,35.1915193 19.6924775,34.7220862 C19.4561261,34.4462132 19.2316667,34.1344218 19.0245495,33.7822222 L14.1191441,25.3917914 C13.6781532,24.748254 13.7068919,23.8617687 14.2405405,23.2446712 C14.8727928,22.5138322 15.9737838,22.4370068 16.7001802,23.0725624 C16.8592342,23.2122449 16.9870721,23.3738776 17.0831982,23.5499773 L21.7492793,31.5303401 C22.5574324,32.9121995 23.3814414,33.238458 24.1316216,32.7934694 C24.8822973,32.3484807 24.9982432,31.4644898 24.1895946,30.0826304 L19.1776577,21.5160998 L19.1826126,21.5131066 L14.3768018,13.2982766 C14.1587838,12.9261224 13.9918018,12.5604535 13.863964,12.1997732 L13.860991,12.204263 C13.860991,12.204263 11.7972523,8.15147392 15.7537838,5.9060771 C19.906036,3.54893424 22.169955,7.3707483 22.169955,7.3707483 L22.166982,7.3707483 C22.3973874,7.64263039 22.6163964,7.94743764 22.8185586,8.29315193 L27.0139189,15.6100227 L27.0119369,15.6110204 C27.3751351,16.2400907 27.3216216,17.0572336 26.8211712,17.6369161 C26.1913964,18.3647619 25.0953604,18.4410884 24.3719369,17.8080272 C24.2297297,17.6828118 24.1122973,17.5396372 24.0211261,17.3849887 L24.0136937,17.3889796 L20.0943243,10.5445351 C19.2861712,9.1631746 18.4626577,8.83591837 17.711982,9.28090703 C16.9613063,9.72589569 16.8458559,10.6103855 17.654009,11.9912472 L22.664955,20.5582766 L22.6604955,20.5612698 L27.4663063,28.7746032 C27.6749099,29.1317914 27.8369369,29.4824943 27.9622973,29.8272109 L27.9632883,29.8262132 C27.9632883,29.826712 30.1469369,33.8934694 26.0704955,36.1253968 L26.0704955,36.1253968 Z" fill="#FFFFFF"></path>
                            </g>
                        </g>
                    </g>
                </g>
            </g>
        </g>
    </g>
</svg>